<?xml version="1.0" encoding="UTF-8" standalone="no"?>
<!DOCTYPE svg PUBLIC "-//W3C//DTD SVG 1.1//EN"
 "http://www.w3.org/Graphics/SVG/1.1/DTD/svg11.dtd">
<!-- Generated by graphviz version 2.43.0 (0)
 -->
<!-- Title: CanvasPanel Pages: 1 -->
<svg width="166pt" height="196pt"
 viewBox="0.00 0.00 165.50 196.00" xmlns="http://www.w3.org/2000/svg" xmlns:xlink="http://www.w3.org/1999/xlink">
<g id="graph0" class="graph" transform="scale(1 1) rotate(0) translate(4 192)">
<title>CanvasPanel</title>
<polygon fill="white" stroke="transparent" points="-4,4 -4,-192 161.5,-192 161.5,4 -4,4"/>
<!-- Node1 -->
<g id="node1" class="node">
<title>Node1</title>
<g id="a_node1"><a xlink:title="Responsible for drawing the board and painting the UI overlays.">
<polygon fill="#bfbfbf" stroke="black" points="35.5,-0.5 35.5,-19.5 114.5,-19.5 114.5,-0.5 35.5,-0.5"/>
<text text-anchor="middle" x="75" y="-7.5" font-family="Helvetica,sans-Serif" font-size="10.00">CanvasPanel</text>
</a>
</g>
</g>
<!-- Node2 -->
<g id="node2" class="node">
<title>Node2</title>
<g id="a_node2"><a target="_parent" xlink:href="https://docs.wxwidgets.org/3.2.2.1/classwx_window.html" xlink:title=" ">
<polygon fill="white" stroke="black" points="40,-56.5 40,-75.5 110,-75.5 110,-56.5 40,-56.5"/>
<text text-anchor="middle" x="75" y="-63.5" font-family="Helvetica,sans-Serif" font-size="10.00">wxWindow</text>
</a>
</g>
</g>
<!-- Node2&#45;&gt;Node1 -->
<g id="edge1" class="edge">
<title>Node2&#45;&gt;Node1</title>
<path fill="none" stroke="midnightblue" d="M75,-45.8C75,-36.91 75,-26.78 75,-19.75"/>
<polygon fill="midnightblue" stroke="midnightblue" points="71.5,-46.08 75,-56.08 78.5,-46.08 71.5,-46.08"/>
</g>
<!-- Node3 -->
<g id="node3" class="node">
<title>Node3</title>
<g id="a_node3"><a target="_parent" xlink:href="https://docs.wxwidgets.org/3.2.2.1/classwx_evt_handler.html" xlink:title=" ">
<polygon fill="white" stroke="black" points="32.5,-112.5 32.5,-131.5 117.5,-131.5 117.5,-112.5 32.5,-112.5"/>
<text text-anchor="middle" x="75" y="-119.5" font-family="Helvetica,sans-Serif" font-size="10.00">wxEvtHandler</text>
</a>
</g>
</g>
<!-- Node3&#45;&gt;Node2 -->
<g id="edge2" class="edge">
<title>Node3&#45;&gt;Node2</title>
<path fill="none" stroke="midnightblue" d="M75,-101.8C75,-92.91 75,-82.78 75,-75.75"/>
<polygon fill="midnightblue" stroke="midnightblue" points="71.5,-102.08 75,-112.08 78.5,-102.08 71.5,-102.08"/>
</g>
<!-- Node4 -->
<g id="node4" class="node">
<title>Node4</title>
<g id="a_node4"><a target="_parent" xlink:href="https://docs.wxwidgets.org/3.2.2.1/classwx_object.html" xlink:title=" ">
<polygon fill="white" stroke="black" points="0,-168.5 0,-187.5 62,-187.5 62,-168.5 0,-168.5"/>
<text text-anchor="middle" x="31" y="-175.5" font-family="Helvetica,sans-Serif" font-size="10.00">wxObject</text>
</a>
</g>
</g>
<!-- Node4&#45;&gt;Node3 -->
<g id="edge3" class="edge">
<title>Node4&#45;&gt;Node3</title>
<path fill="none" stroke="midnightblue" d="M44.73,-160.14C52.4,-150.74 61.63,-139.4 67.87,-131.75"/>
<polygon fill="midnightblue" stroke="midnightblue" points="41.87,-158.12 38.27,-168.08 47.3,-162.54 41.87,-158.12"/>
</g>
<!-- Node5 -->
<g id="node5" class="node">
<title>Node5</title>
<g id="a_node5"><a target="_parent" xlink:href="https://docs.wxwidgets.org/3.2.2.1/classwx_trackable.html" xlink:title=" ">
<polygon fill="white" stroke="black" points="80.5,-168.5 80.5,-187.5 157.5,-187.5 157.5,-168.5 80.5,-168.5"/>
<text text-anchor="middle" x="119" y="-175.5" font-family="Helvetica,sans-Serif" font-size="10.00">wxTrackable</text>
</a>
</g>
</g>
<!-- Node5&#45;&gt;Node3 -->
<g id="edge4" class="edge">
<title>Node5&#45;&gt;Node3</title>
<path fill="none" stroke="midnightblue" d="M105.27,-160.14C97.6,-150.74 88.37,-139.4 82.13,-131.75"/>
<polygon fill="midnightblue" stroke="midnightblue" points="102.7,-162.54 111.73,-168.08 108.13,-158.12 102.7,-162.54"/>
</g>
</g>
</svg>
