<?xml version="1.0" encoding="UTF-8" standalone="no"?>
<!DOCTYPE svg PUBLIC "-//W3C//DTD SVG 1.1//EN"
 "http://www.w3.org/Graphics/SVG/1.1/DTD/svg11.dtd">
<!-- Generated by graphviz version 2.43.0 (0)
 -->
<!-- Title: PenguinsApp Pages: 1 -->
<svg width="227pt" height="252pt"
 viewBox="0.00 0.00 226.50 252.00" xmlns="http://www.w3.org/2000/svg" xmlns:xlink="http://www.w3.org/1999/xlink">
<g id="graph0" class="graph" transform="scale(1 1) rotate(0) translate(4 248)">
<title>PenguinsApp</title>
<polygon fill="white" stroke="transparent" points="-4,4 -4,-248 222.5,-248 222.5,4 -4,4"/>
<!-- Node1 -->
<g id="node1" class="node">
<title>Node1</title>
<g id="a_node1"><a xlink:title=" ">
<polygon fill="#bfbfbf" stroke="black" points="86,-0.5 86,-19.5 166,-19.5 166,-0.5 86,-0.5"/>
<text text-anchor="middle" x="126" y="-7.5" font-family="Helvetica,sans-Serif" font-size="10.00">PenguinsApp</text>
</a>
</g>
</g>
<!-- Node2 -->
<g id="node2" class="node">
<title>Node2</title>
<g id="a_node2"><a target="_parent" xlink:href="https://docs.wxwidgets.org/3.2.2.1/classwx_app.html" xlink:title=" ">
<polygon fill="white" stroke="black" points="101,-56.5 101,-75.5 151,-75.5 151,-56.5 101,-56.5"/>
<text text-anchor="middle" x="126" y="-63.5" font-family="Helvetica,sans-Serif" font-size="10.00">wxApp</text>
</a>
</g>
</g>
<!-- Node2&#45;&gt;Node1 -->
<g id="edge1" class="edge">
<title>Node2&#45;&gt;Node1</title>
<path fill="none" stroke="midnightblue" d="M126,-45.8C126,-36.91 126,-26.78 126,-19.75"/>
<polygon fill="midnightblue" stroke="midnightblue" points="122.5,-46.08 126,-56.08 129.5,-46.08 122.5,-46.08"/>
</g>
<!-- Node3 -->
<g id="node3" class="node">
<title>Node3</title>
<g id="a_node3"><a target="_parent" xlink:href="https://docs.wxwidgets.org/3.2.2.1/classwx_app_console.html" xlink:title=" ">
<polygon fill="white" stroke="black" points="81.5,-112.5 81.5,-131.5 170.5,-131.5 170.5,-112.5 81.5,-112.5"/>
<text text-anchor="middle" x="126" y="-119.5" font-family="Helvetica,sans-Serif" font-size="10.00">wxAppConsole</text>
</a>
</g>
</g>
<!-- Node3&#45;&gt;Node2 -->
<g id="edge2" class="edge">
<title>Node3&#45;&gt;Node2</title>
<path fill="none" stroke="midnightblue" d="M126,-101.8C126,-92.91 126,-82.78 126,-75.75"/>
<polygon fill="midnightblue" stroke="midnightblue" points="122.5,-102.08 126,-112.08 129.5,-102.08 122.5,-102.08"/>
</g>
<!-- Node4 -->
<g id="node4" class="node">
<title>Node4</title>
<g id="a_node4"><a target="_parent" xlink:href="https://docs.wxwidgets.org/3.2.2.1/classwx_evt_handler.html" xlink:title=" ">
<polygon fill="white" stroke="black" points="32.5,-168.5 32.5,-187.5 117.5,-187.5 117.5,-168.5 32.5,-168.5"/>
<text text-anchor="middle" x="75" y="-175.5" font-family="Helvetica,sans-Serif" font-size="10.00">wxEvtHandler</text>
</a>
</g>
</g>
<!-- Node4&#45;&gt;Node3 -->
<g id="edge3" class="edge">
<title>Node4&#45;&gt;Node3</title>
<path fill="none" stroke="midnightblue" d="M90.38,-160.72C99.37,-151.2 110.36,-139.56 117.74,-131.75"/>
<polygon fill="midnightblue" stroke="midnightblue" points="87.74,-158.41 83.42,-168.08 92.83,-163.22 87.74,-158.41"/>
</g>
<!-- Node5 -->
<g id="node5" class="node">
<title>Node5</title>
<g id="a_node5"><a target="_parent" xlink:href="https://docs.wxwidgets.org/3.2.2.1/classwx_object.html" xlink:title=" ">
<polygon fill="white" stroke="black" points="0,-224.5 0,-243.5 62,-243.5 62,-224.5 0,-224.5"/>
<text text-anchor="middle" x="31" y="-231.5" font-family="Helvetica,sans-Serif" font-size="10.00">wxObject</text>
</a>
</g>
</g>
<!-- Node5&#45;&gt;Node4 -->
<g id="edge4" class="edge">
<title>Node5&#45;&gt;Node4</title>
<path fill="none" stroke="midnightblue" d="M44.73,-216.14C52.4,-206.74 61.63,-195.4 67.87,-187.75"/>
<polygon fill="midnightblue" stroke="midnightblue" points="41.87,-214.12 38.27,-224.08 47.3,-218.54 41.87,-214.12"/>
</g>
<!-- Node6 -->
<g id="node6" class="node">
<title>Node6</title>
<g id="a_node6"><a target="_parent" xlink:href="https://docs.wxwidgets.org/3.2.2.1/classwx_trackable.html" xlink:title=" ">
<polygon fill="white" stroke="black" points="80.5,-224.5 80.5,-243.5 157.5,-243.5 157.5,-224.5 80.5,-224.5"/>
<text text-anchor="middle" x="119" y="-231.5" font-family="Helvetica,sans-Serif" font-size="10.00">wxTrackable</text>
</a>
</g>
</g>
<!-- Node6&#45;&gt;Node4 -->
<g id="edge5" class="edge">
<title>Node6&#45;&gt;Node4</title>
<path fill="none" stroke="midnightblue" d="M105.27,-216.14C97.6,-206.74 88.37,-195.4 82.13,-187.75"/>
<polygon fill="midnightblue" stroke="midnightblue" points="102.7,-218.54 111.73,-224.08 108.13,-214.12 102.7,-218.54"/>
</g>
<!-- Node7 -->
<g id="node7" class="node">
<title>Node7</title>
<g id="a_node7"><a target="_parent" xlink:href="https://docs.wxwidgets.org/3.2.2.1/classwx_event_filter.html" xlink:title=" ">
<polygon fill="white" stroke="black" points="135.5,-168.5 135.5,-187.5 218.5,-187.5 218.5,-168.5 135.5,-168.5"/>
<text text-anchor="middle" x="177" y="-175.5" font-family="Helvetica,sans-Serif" font-size="10.00">wxEventFilter</text>
</a>
</g>
</g>
<!-- Node7&#45;&gt;Node3 -->
<g id="edge6" class="edge">
<title>Node7&#45;&gt;Node3</title>
<path fill="none" stroke="midnightblue" d="M161.62,-160.72C152.63,-151.2 141.64,-139.56 134.26,-131.75"/>
<polygon fill="midnightblue" stroke="midnightblue" points="159.17,-163.22 168.58,-168.08 164.26,-158.41 159.17,-163.22"/>
</g>
</g>
</svg>
