<?xml version="1.0" encoding="UTF-8" standalone="no"?>
<!DOCTYPE svg PUBLIC "-//W3C//DTD SVG 1.1//EN"
 "http://www.w3.org/Graphics/SVG/1.1/DTD/svg11.dtd">
<!-- Generated by graphviz version 2.43.0 (0)
 -->
<!-- Title: SimpleStaticBox Pages: 1 -->
<svg width="166pt" height="364pt"
 viewBox="0.00 0.00 165.50 364.00" xmlns="http://www.w3.org/2000/svg" xmlns:xlink="http://www.w3.org/1999/xlink">
<g id="graph0" class="graph" transform="scale(1 1) rotate(0) translate(4 360)">
<title>SimpleStaticBox</title>
<polygon fill="white" stroke="transparent" points="-4,4 -4,-360 161.5,-360 161.5,4 -4,4"/>
<!-- Node1 -->
<g id="node1" class="node">
<title>Node1</title>
<g id="a_node1"><a xlink:title="A wxStaticBox with just the border and no label.">
<polygon fill="#bfbfbf" stroke="black" points="26.5,-56.5 26.5,-75.5 123.5,-75.5 123.5,-56.5 26.5,-56.5"/>
<text text-anchor="middle" x="75" y="-63.5" font-family="Helvetica,sans-Serif" font-size="10.00">SimpleStaticBox</text>
</a>
</g>
</g>
<!-- Node8 -->
<g id="node8" class="node">
<title>Node8</title>
<g id="a_node8"><a xlink:href="classPlayerInfoBox.html" target="_top" xlink:title=" ">
<polygon fill="white" stroke="black" points="32.5,-0.5 32.5,-19.5 117.5,-19.5 117.5,-0.5 32.5,-0.5"/>
<text text-anchor="middle" x="75" y="-7.5" font-family="Helvetica,sans-Serif" font-size="10.00">PlayerInfoBox</text>
</a>
</g>
</g>
<!-- Node1&#45;&gt;Node8 -->
<g id="edge7" class="edge">
<title>Node1&#45;&gt;Node8</title>
<path fill="none" stroke="midnightblue" d="M75,-45.8C75,-36.91 75,-26.78 75,-19.75"/>
<polygon fill="midnightblue" stroke="midnightblue" points="71.5,-46.08 75,-56.08 78.5,-46.08 71.5,-46.08"/>
</g>
<!-- Node2 -->
<g id="node2" class="node">
<title>Node2</title>
<g id="a_node2"><a target="_parent" xlink:href="https://docs.wxwidgets.org/3.2.2.1/classwx_static_box.html" xlink:title=" ">
<polygon fill="white" stroke="black" points="36.5,-112.5 36.5,-131.5 113.5,-131.5 113.5,-112.5 36.5,-112.5"/>
<text text-anchor="middle" x="75" y="-119.5" font-family="Helvetica,sans-Serif" font-size="10.00">wxStaticBox</text>
</a>
</g>
</g>
<!-- Node2&#45;&gt;Node1 -->
<g id="edge1" class="edge">
<title>Node2&#45;&gt;Node1</title>
<path fill="none" stroke="midnightblue" d="M75,-101.8C75,-92.91 75,-82.78 75,-75.75"/>
<polygon fill="midnightblue" stroke="midnightblue" points="71.5,-102.08 75,-112.08 78.5,-102.08 71.5,-102.08"/>
</g>
<!-- Node3 -->
<g id="node3" class="node">
<title>Node3</title>
<g id="a_node3"><a target="_parent" xlink:href="https://docs.wxwidgets.org/3.2.2.1/classwx_control.html" xlink:title=" ">
<polygon fill="white" stroke="black" points="42,-168.5 42,-187.5 108,-187.5 108,-168.5 42,-168.5"/>
<text text-anchor="middle" x="75" y="-175.5" font-family="Helvetica,sans-Serif" font-size="10.00">wxControl</text>
</a>
</g>
</g>
<!-- Node3&#45;&gt;Node2 -->
<g id="edge2" class="edge">
<title>Node3&#45;&gt;Node2</title>
<path fill="none" stroke="midnightblue" d="M75,-157.8C75,-148.91 75,-138.78 75,-131.75"/>
<polygon fill="midnightblue" stroke="midnightblue" points="71.5,-158.08 75,-168.08 78.5,-158.08 71.5,-158.08"/>
</g>
<!-- Node4 -->
<g id="node4" class="node">
<title>Node4</title>
<g id="a_node4"><a target="_parent" xlink:href="https://docs.wxwidgets.org/3.2.2.1/classwx_window.html" xlink:title=" ">
<polygon fill="white" stroke="black" points="40,-224.5 40,-243.5 110,-243.5 110,-224.5 40,-224.5"/>
<text text-anchor="middle" x="75" y="-231.5" font-family="Helvetica,sans-Serif" font-size="10.00">wxWindow</text>
</a>
</g>
</g>
<!-- Node4&#45;&gt;Node3 -->
<g id="edge3" class="edge">
<title>Node4&#45;&gt;Node3</title>
<path fill="none" stroke="midnightblue" d="M75,-213.8C75,-204.91 75,-194.78 75,-187.75"/>
<polygon fill="midnightblue" stroke="midnightblue" points="71.5,-214.08 75,-224.08 78.5,-214.08 71.5,-214.08"/>
</g>
<!-- Node5 -->
<g id="node5" class="node">
<title>Node5</title>
<g id="a_node5"><a target="_parent" xlink:href="https://docs.wxwidgets.org/3.2.2.1/classwx_evt_handler.html" xlink:title=" ">
<polygon fill="white" stroke="black" points="32.5,-280.5 32.5,-299.5 117.5,-299.5 117.5,-280.5 32.5,-280.5"/>
<text text-anchor="middle" x="75" y="-287.5" font-family="Helvetica,sans-Serif" font-size="10.00">wxEvtHandler</text>
</a>
</g>
</g>
<!-- Node5&#45;&gt;Node4 -->
<g id="edge4" class="edge">
<title>Node5&#45;&gt;Node4</title>
<path fill="none" stroke="midnightblue" d="M75,-269.8C75,-260.91 75,-250.78 75,-243.75"/>
<polygon fill="midnightblue" stroke="midnightblue" points="71.5,-270.08 75,-280.08 78.5,-270.08 71.5,-270.08"/>
</g>
<!-- Node6 -->
<g id="node6" class="node">
<title>Node6</title>
<g id="a_node6"><a target="_parent" xlink:href="https://docs.wxwidgets.org/3.2.2.1/classwx_object.html" xlink:title=" ">
<polygon fill="white" stroke="black" points="0,-336.5 0,-355.5 62,-355.5 62,-336.5 0,-336.5"/>
<text text-anchor="middle" x="31" y="-343.5" font-family="Helvetica,sans-Serif" font-size="10.00">wxObject</text>
</a>
</g>
</g>
<!-- Node6&#45;&gt;Node5 -->
<g id="edge5" class="edge">
<title>Node6&#45;&gt;Node5</title>
<path fill="none" stroke="midnightblue" d="M44.73,-328.14C52.4,-318.74 61.63,-307.4 67.87,-299.75"/>
<polygon fill="midnightblue" stroke="midnightblue" points="41.87,-326.12 38.27,-336.08 47.3,-330.54 41.87,-326.12"/>
</g>
<!-- Node7 -->
<g id="node7" class="node">
<title>Node7</title>
<g id="a_node7"><a target="_parent" xlink:href="https://docs.wxwidgets.org/3.2.2.1/classwx_trackable.html" xlink:title=" ">
<polygon fill="white" stroke="black" points="80.5,-336.5 80.5,-355.5 157.5,-355.5 157.5,-336.5 80.5,-336.5"/>
<text text-anchor="middle" x="119" y="-343.5" font-family="Helvetica,sans-Serif" font-size="10.00">wxTrackable</text>
</a>
</g>
</g>
<!-- Node7&#45;&gt;Node5 -->
<g id="edge6" class="edge">
<title>Node7&#45;&gt;Node5</title>
<path fill="none" stroke="midnightblue" d="M105.27,-328.14C97.6,-318.74 88.37,-307.4 82.13,-299.75"/>
<polygon fill="midnightblue" stroke="midnightblue" points="102.7,-330.54 111.73,-336.08 108.13,-326.12 102.7,-330.54"/>
</g>
</g>
</svg>
