<?xml version="1.0" encoding="UTF-8" standalone="no"?>
<!DOCTYPE svg PUBLIC "-//W3C//DTD SVG 1.1//EN"
 "http://www.w3.org/Graphics/SVG/1.1/DTD/svg11.dtd">
<!-- Generated by graphviz version 2.43.0 (0)
 -->
<!-- Title: GameController Pages: 1 -->
<svg width="697pt" height="161pt"
 viewBox="0.00 0.00 697.00 161.00" xmlns="http://www.w3.org/2000/svg" xmlns:xlink="http://www.w3.org/1999/xlink">
<g id="graph0" class="graph" transform="scale(1 1) rotate(0) translate(4 157)">
<title>GameController</title>
<polygon fill="white" stroke="transparent" points="-4,4 -4,-157 693,-157 693,4 -4,4"/>
<!-- Node1 -->
<g id="node1" class="node">
<title>Node1</title>
<g id="a_node1"><a xlink:title=" ">
<polygon fill="#bfbfbf" stroke="black" points="234,-67.5 234,-86.5 328,-86.5 328,-67.5 234,-67.5"/>
<text text-anchor="middle" x="281" y="-74.5" font-family="Helvetica,sans-Serif" font-size="10.00">GameController</text>
</a>
</g>
</g>
<!-- Node5 -->
<g id="node5" class="node">
<title>Node5</title>
<g id="a_node5"><a xlink:href="classBotTurnController.html" target="_top" xlink:title=" ">
<polygon fill="white" stroke="black" points="384,-124.5 384,-143.5 485,-143.5 485,-124.5 384,-124.5"/>
<text text-anchor="middle" x="434.5" y="-131.5" font-family="Helvetica,sans-Serif" font-size="10.00">BotTurnController</text>
</a>
</g>
</g>
<!-- Node1&#45;&gt;Node5 -->
<g id="edge4" class="edge">
<title>Node1&#45;&gt;Node5</title>
<path fill="none" stroke="midnightblue" d="M309.33,-91.07C325.05,-98.8 345.33,-108.18 364,-115 373.63,-118.52 384.23,-121.74 394.18,-124.48"/>
<polygon fill="midnightblue" stroke="midnightblue" points="310.7,-87.84 300.19,-86.5 307.57,-94.1 310.7,-87.84"/>
</g>
<!-- Node8 -->
<g id="node8" class="node">
<title>Node8</title>
<g id="a_node8"><a xlink:href="classGameEndedController.html" target="_top" xlink:title=" ">
<polygon fill="white" stroke="black" points="372.5,-86.5 372.5,-105.5 496.5,-105.5 496.5,-86.5 372.5,-86.5"/>
<text text-anchor="middle" x="434.5" y="-93.5" font-family="Helvetica,sans-Serif" font-size="10.00">GameEndedController</text>
</a>
</g>
</g>
<!-- Node1&#45;&gt;Node8 -->
<g id="edge7" class="edge">
<title>Node1&#45;&gt;Node8</title>
<path fill="none" stroke="midnightblue" d="M338.3,-84.06C349.42,-85.46 361.15,-86.93 372.42,-88.34"/>
<polygon fill="midnightblue" stroke="midnightblue" points="338.64,-80.58 328.28,-82.8 337.76,-87.52 338.64,-80.58"/>
</g>
<!-- Node9 -->
<g id="node9" class="node">
<title>Node9</title>
<g id="a_node9"><a xlink:href="classLogEntryViewerController.html" target="_top" xlink:title=" ">
<polygon fill="white" stroke="black" points="364,-48.5 364,-67.5 505,-67.5 505,-48.5 364,-48.5"/>
<text text-anchor="middle" x="434.5" y="-55.5" font-family="Helvetica,sans-Serif" font-size="10.00">LogEntryViewerController</text>
</a>
</g>
</g>
<!-- Node1&#45;&gt;Node9 -->
<g id="edge8" class="edge">
<title>Node1&#45;&gt;Node9</title>
<path fill="none" stroke="midnightblue" d="M338.24,-69.95C346.57,-68.9 355.23,-67.82 363.8,-66.74"/>
<polygon fill="midnightblue" stroke="midnightblue" points="337.76,-66.48 328.28,-71.2 338.64,-73.42 337.76,-66.48"/>
</g>
<!-- Node10 -->
<g id="node10" class="node">
<title>Node10</title>
<g id="a_node10"><a xlink:href="classPlayerTurnController.html" target="_top" xlink:title=" ">
<polygon fill="white" stroke="black" points="376.5,-10.5 376.5,-29.5 492.5,-29.5 492.5,-10.5 376.5,-10.5"/>
<text text-anchor="middle" x="434.5" y="-17.5" font-family="Helvetica,sans-Serif" font-size="10.00">PlayerTurnController</text>
</a>
</g>
</g>
<!-- Node1&#45;&gt;Node10 -->
<g id="edge9" class="edge">
<title>Node1&#45;&gt;Node10</title>
<path fill="none" stroke="midnightblue" d="M309.33,-62.93C325.05,-55.2 345.33,-45.82 364,-39 373.63,-35.48 384.23,-32.26 394.18,-29.52"/>
<polygon fill="midnightblue" stroke="midnightblue" points="307.57,-59.9 300.19,-67.5 310.7,-66.16 307.57,-59.9"/>
</g>
<!-- Node2 -->
<g id="node2" class="node">
<title>Node2</title>
<g id="a_node2"><a target="_parent" xlink:href="https://docs.wxwidgets.org/3.2.2.1/classwx_evt_handler.html" xlink:title=" ">
<polygon fill="white" stroke="black" points="113,-67.5 113,-86.5 198,-86.5 198,-67.5 113,-67.5"/>
<text text-anchor="middle" x="155.5" y="-74.5" font-family="Helvetica,sans-Serif" font-size="10.00">wxEvtHandler</text>
</a>
</g>
</g>
<!-- Node2&#45;&gt;Node1 -->
<g id="edge1" class="edge">
<title>Node2&#45;&gt;Node1</title>
<path fill="none" stroke="midnightblue" d="M208.48,-77C216.95,-77 225.67,-77 233.99,-77"/>
<polygon fill="midnightblue" stroke="midnightblue" points="208.31,-73.5 198.31,-77 208.31,-80.5 208.31,-73.5"/>
</g>
<!-- Node3 -->
<g id="node3" class="node">
<title>Node3</title>
<g id="a_node3"><a target="_parent" xlink:href="https://docs.wxwidgets.org/3.2.2.1/classwx_object.html" xlink:title=" ">
<polygon fill="white" stroke="black" points="7.5,-86.5 7.5,-105.5 69.5,-105.5 69.5,-86.5 7.5,-86.5"/>
<text text-anchor="middle" x="38.5" y="-93.5" font-family="Helvetica,sans-Serif" font-size="10.00">wxObject</text>
</a>
</g>
</g>
<!-- Node3&#45;&gt;Node2 -->
<g id="edge2" class="edge">
<title>Node3&#45;&gt;Node2</title>
<path fill="none" stroke="midnightblue" d="M79.67,-89.36C90.4,-87.59 102.01,-85.67 112.81,-83.89"/>
<polygon fill="midnightblue" stroke="midnightblue" points="79.01,-85.92 69.71,-91.01 80.15,-92.83 79.01,-85.92"/>
</g>
<!-- Node4 -->
<g id="node4" class="node">
<title>Node4</title>
<g id="a_node4"><a target="_parent" xlink:href="https://docs.wxwidgets.org/3.2.2.1/classwx_trackable.html" xlink:title=" ">
<polygon fill="white" stroke="black" points="0,-48.5 0,-67.5 77,-67.5 77,-48.5 0,-48.5"/>
<text text-anchor="middle" x="38.5" y="-55.5" font-family="Helvetica,sans-Serif" font-size="10.00">wxTrackable</text>
</a>
</g>
</g>
<!-- Node4&#45;&gt;Node2 -->
<g id="edge3" class="edge">
<title>Node4&#45;&gt;Node2</title>
<path fill="none" stroke="midnightblue" d="M87.29,-65.89C95.75,-67.29 104.5,-68.74 112.78,-70.11"/>
<polygon fill="midnightblue" stroke="midnightblue" points="87.59,-62.4 77.16,-64.22 86.45,-69.3 87.59,-62.4"/>
</g>
<!-- Node6 -->
<g id="node6" class="node">
<title>Node6</title>
<g id="a_node6"><a xlink:href="classBotMovementController.html" target="_top" xlink:title=" ">
<polygon fill="white" stroke="black" points="548,-133.5 548,-152.5 682,-152.5 682,-133.5 548,-133.5"/>
<text text-anchor="middle" x="615" y="-140.5" font-family="Helvetica,sans-Serif" font-size="10.00">BotMovementController</text>
</a>
</g>
</g>
<!-- Node5&#45;&gt;Node6 -->
<g id="edge5" class="edge">
<title>Node5&#45;&gt;Node6</title>
<path fill="none" stroke="midnightblue" d="M495.47,-137.02C512.3,-137.87 530.69,-138.8 547.86,-139.67"/>
<polygon fill="midnightblue" stroke="midnightblue" points="495.39,-133.52 485.22,-136.51 495.03,-140.51 495.39,-133.52"/>
</g>
<!-- Node7 -->
<g id="node7" class="node">
<title>Node7</title>
<g id="a_node7"><a xlink:href="classBotPlacementController.html" target="_top" xlink:title=" ">
<polygon fill="white" stroke="black" points="548.5,-95.5 548.5,-114.5 681.5,-114.5 681.5,-95.5 548.5,-95.5"/>
<text text-anchor="middle" x="615" y="-102.5" font-family="Helvetica,sans-Serif" font-size="10.00">BotPlacementController</text>
</a>
</g>
</g>
<!-- Node5&#45;&gt;Node7 -->
<g id="edge6" class="edge">
<title>Node5&#45;&gt;Node7</title>
<path fill="none" stroke="midnightblue" d="M495.15,-124.31C514.55,-121.16 536.05,-117.66 555.38,-114.52"/>
<polygon fill="midnightblue" stroke="midnightblue" points="494.53,-120.86 485.22,-125.92 495.65,-127.77 494.53,-120.86"/>
</g>
<!-- Node11 -->
<g id="node11" class="node">
<title>Node11</title>
<g id="a_node11"><a xlink:href="classPlayerMovementController.html" target="_top" xlink:title=" ">
<polygon fill="white" stroke="black" points="541,-38.5 541,-57.5 689,-57.5 689,-38.5 541,-38.5"/>
<text text-anchor="middle" x="615" y="-45.5" font-family="Helvetica,sans-Serif" font-size="10.00">PlayerMovementController</text>
</a>
</g>
</g>
<!-- Node10&#45;&gt;Node11 -->
<g id="edge10" class="edge">
<title>Node10&#45;&gt;Node11</title>
<path fill="none" stroke="midnightblue" d="M503.07,-30.6C519.57,-33.19 537.11,-35.94 553.26,-38.47"/>
<polygon fill="midnightblue" stroke="midnightblue" points="503.38,-27.11 492.96,-29.01 502.3,-34.02 503.38,-27.11"/>
</g>
<!-- Node12 -->
<g id="node12" class="node">
<title>Node12</title>
<g id="a_node12"><a xlink:href="classPlayerPlacementController.html" target="_top" xlink:title=" ">
<polygon fill="white" stroke="black" points="541.5,-0.5 541.5,-19.5 688.5,-19.5 688.5,-0.5 541.5,-0.5"/>
<text text-anchor="middle" x="615" y="-7.5" font-family="Helvetica,sans-Serif" font-size="10.00">PlayerPlacementController</text>
</a>
</g>
</g>
<!-- Node10&#45;&gt;Node12 -->
<g id="edge11" class="edge">
<title>Node10&#45;&gt;Node12</title>
<path fill="none" stroke="midnightblue" d="M503.25,-16.2C515.68,-15.51 528.71,-14.78 541.29,-14.07"/>
<polygon fill="midnightblue" stroke="midnightblue" points="502.75,-12.73 492.96,-16.78 503.14,-19.72 502.75,-12.73"/>
</g>
</g>
</svg>
