<?xml version="1.0" encoding="UTF-8" standalone="no"?>
<!DOCTYPE svg PUBLIC "-//W3C//DTD SVG 1.1//EN"
 "http://www.w3.org/Graphics/SVG/1.1/DTD/svg11.dtd">
<!-- Generated by graphviz version 2.43.0 (0)
 -->
<!-- Title: BaseGamePanel Pages: 1 -->
<svg width="194pt" height="308pt"
 viewBox="0.00 0.00 193.50 308.00" xmlns="http://www.w3.org/2000/svg" xmlns:xlink="http://www.w3.org/1999/xlink">
<g id="graph0" class="graph" transform="scale(1 1) rotate(0) translate(4 304)">
<title>BaseGamePanel</title>
<polygon fill="white" stroke="transparent" points="-4,4 -4,-304 189.5,-304 189.5,4 -4,4"/>
<!-- Node1 -->
<g id="node1" class="node">
<title>Node1</title>
<g id="a_node1"><a xlink:title=" ">
<polygon fill="#bfbfbf" stroke="black" points="39,-56.5 39,-75.5 135,-75.5 135,-56.5 39,-56.5"/>
<text text-anchor="middle" x="87" y="-63.5" font-family="Helvetica,sans-Serif" font-size="10.00">BaseGamePanel</text>
</a>
</g>
</g>
<!-- Node7 -->
<g id="node7" class="node">
<title>Node7</title>
<g id="a_node7"><a xlink:href="classGamePanel.html" target="_top" xlink:title=" ">
<polygon fill="white" stroke="black" points="0,-0.5 0,-19.5 72,-19.5 72,-0.5 0,-0.5"/>
<text text-anchor="middle" x="36" y="-7.5" font-family="Helvetica,sans-Serif" font-size="10.00">GamePanel</text>
</a>
</g>
</g>
<!-- Node1&#45;&gt;Node7 -->
<g id="edge6" class="edge">
<title>Node1&#45;&gt;Node7</title>
<path fill="none" stroke="midnightblue" d="M71.62,-48.72C62.63,-39.2 51.64,-27.56 44.26,-19.75"/>
<polygon fill="midnightblue" stroke="midnightblue" points="69.17,-51.22 78.58,-56.08 74.26,-46.41 69.17,-51.22"/>
</g>
<!-- Node8 -->
<g id="node8" class="node">
<title>Node8</title>
<g id="a_node8"><a xlink:href="classGameStartPanel.html" target="_top" xlink:title=" ">
<polygon fill="white" stroke="black" points="90.5,-0.5 90.5,-19.5 185.5,-19.5 185.5,-0.5 90.5,-0.5"/>
<text text-anchor="middle" x="138" y="-7.5" font-family="Helvetica,sans-Serif" font-size="10.00">GameStartPanel</text>
</a>
</g>
</g>
<!-- Node1&#45;&gt;Node8 -->
<g id="edge7" class="edge">
<title>Node1&#45;&gt;Node8</title>
<path fill="none" stroke="midnightblue" d="M102.38,-48.72C111.37,-39.2 122.36,-27.56 129.74,-19.75"/>
<polygon fill="midnightblue" stroke="midnightblue" points="99.74,-46.41 95.42,-56.08 104.83,-51.22 99.74,-46.41"/>
</g>
<!-- Node2 -->
<g id="node2" class="node">
<title>Node2</title>
<g id="a_node2"><a target="_parent" xlink:href="https://docs.wxwidgets.org/3.2.2.1/classwx_panel.html" xlink:title=" ">
<polygon fill="white" stroke="black" points="58.5,-112.5 58.5,-131.5 115.5,-131.5 115.5,-112.5 58.5,-112.5"/>
<text text-anchor="middle" x="87" y="-119.5" font-family="Helvetica,sans-Serif" font-size="10.00">wxPanel</text>
</a>
</g>
</g>
<!-- Node2&#45;&gt;Node1 -->
<g id="edge1" class="edge">
<title>Node2&#45;&gt;Node1</title>
<path fill="none" stroke="midnightblue" d="M87,-101.8C87,-92.91 87,-82.78 87,-75.75"/>
<polygon fill="midnightblue" stroke="midnightblue" points="83.5,-102.08 87,-112.08 90.5,-102.08 83.5,-102.08"/>
</g>
<!-- Node3 -->
<g id="node3" class="node">
<title>Node3</title>
<g id="a_node3"><a target="_parent" xlink:href="https://docs.wxwidgets.org/3.2.2.1/classwx_window.html" xlink:title=" ">
<polygon fill="white" stroke="black" points="52,-168.5 52,-187.5 122,-187.5 122,-168.5 52,-168.5"/>
<text text-anchor="middle" x="87" y="-175.5" font-family="Helvetica,sans-Serif" font-size="10.00">wxWindow</text>
</a>
</g>
</g>
<!-- Node3&#45;&gt;Node2 -->
<g id="edge2" class="edge">
<title>Node3&#45;&gt;Node2</title>
<path fill="none" stroke="midnightblue" d="M87,-157.8C87,-148.91 87,-138.78 87,-131.75"/>
<polygon fill="midnightblue" stroke="midnightblue" points="83.5,-158.08 87,-168.08 90.5,-158.08 83.5,-158.08"/>
</g>
<!-- Node4 -->
<g id="node4" class="node">
<title>Node4</title>
<g id="a_node4"><a target="_parent" xlink:href="https://docs.wxwidgets.org/3.2.2.1/classwx_evt_handler.html" xlink:title=" ">
<polygon fill="white" stroke="black" points="44.5,-224.5 44.5,-243.5 129.5,-243.5 129.5,-224.5 44.5,-224.5"/>
<text text-anchor="middle" x="87" y="-231.5" font-family="Helvetica,sans-Serif" font-size="10.00">wxEvtHandler</text>
</a>
</g>
</g>
<!-- Node4&#45;&gt;Node3 -->
<g id="edge3" class="edge">
<title>Node4&#45;&gt;Node3</title>
<path fill="none" stroke="midnightblue" d="M87,-213.8C87,-204.91 87,-194.78 87,-187.75"/>
<polygon fill="midnightblue" stroke="midnightblue" points="83.5,-214.08 87,-224.08 90.5,-214.08 83.5,-214.08"/>
</g>
<!-- Node5 -->
<g id="node5" class="node">
<title>Node5</title>
<g id="a_node5"><a target="_parent" xlink:href="https://docs.wxwidgets.org/3.2.2.1/classwx_object.html" xlink:title=" ">
<polygon fill="white" stroke="black" points="12,-280.5 12,-299.5 74,-299.5 74,-280.5 12,-280.5"/>
<text text-anchor="middle" x="43" y="-287.5" font-family="Helvetica,sans-Serif" font-size="10.00">wxObject</text>
</a>
</g>
</g>
<!-- Node5&#45;&gt;Node4 -->
<g id="edge4" class="edge">
<title>Node5&#45;&gt;Node4</title>
<path fill="none" stroke="midnightblue" d="M56.73,-272.14C64.4,-262.74 73.63,-251.4 79.87,-243.75"/>
<polygon fill="midnightblue" stroke="midnightblue" points="53.87,-270.12 50.27,-280.08 59.3,-274.54 53.87,-270.12"/>
</g>
<!-- Node6 -->
<g id="node6" class="node">
<title>Node6</title>
<g id="a_node6"><a target="_parent" xlink:href="https://docs.wxwidgets.org/3.2.2.1/classwx_trackable.html" xlink:title=" ">
<polygon fill="white" stroke="black" points="92.5,-280.5 92.5,-299.5 169.5,-299.5 169.5,-280.5 92.5,-280.5"/>
<text text-anchor="middle" x="131" y="-287.5" font-family="Helvetica,sans-Serif" font-size="10.00">wxTrackable</text>
</a>
</g>
</g>
<!-- Node6&#45;&gt;Node4 -->
<g id="edge5" class="edge">
<title>Node6&#45;&gt;Node4</title>
<path fill="none" stroke="midnightblue" d="M117.27,-272.14C109.6,-262.74 100.37,-251.4 94.13,-243.75"/>
<polygon fill="midnightblue" stroke="midnightblue" points="114.7,-274.54 123.73,-280.08 120.13,-270.12 114.7,-274.54"/>
</g>
</g>
</svg>
