<?xml version="1.0" encoding="UTF-8" standalone="no"?>
<!DOCTYPE svg PUBLIC "-//W3C//DTD SVG 1.1//EN"
 "http://www.w3.org/Graphics/SVG/1.1/DTD/svg11.dtd">
<!-- Generated by graphviz version 2.43.0 (0)
 -->
<!-- Title: PlayerTurnController Pages: 1 -->
<svg width="322pt" height="252pt"
 viewBox="0.00 0.00 321.50 252.00" xmlns="http://www.w3.org/2000/svg" xmlns:xlink="http://www.w3.org/1999/xlink">
<g id="graph0" class="graph" transform="scale(1 1) rotate(0) translate(4 248)">
<title>PlayerTurnController</title>
<polygon fill="white" stroke="transparent" points="-4,4 -4,-248 317.5,-248 317.5,4 -4,4"/>
<!-- Node1 -->
<g id="node1" class="node">
<title>Node1</title>
<g id="a_node1"><a xlink:title=" ">
<polygon fill="#bfbfbf" stroke="black" points="99,-56.5 99,-75.5 215,-75.5 215,-56.5 99,-56.5"/>
<text text-anchor="middle" x="157" y="-63.5" font-family="Helvetica,sans-Serif" font-size="10.00">PlayerTurnController</text>
</a>
</g>
</g>
<!-- Node6 -->
<g id="node6" class="node">
<title>Node6</title>
<g id="a_node6"><a xlink:href="classPlayerMovementController.html" target="_top" xlink:title=" ">
<polygon fill="white" stroke="black" points="0,-0.5 0,-19.5 148,-19.5 148,-0.5 0,-0.5"/>
<text text-anchor="middle" x="74" y="-7.5" font-family="Helvetica,sans-Serif" font-size="10.00">PlayerMovementController</text>
</a>
</g>
</g>
<!-- Node1&#45;&gt;Node6 -->
<g id="edge5" class="edge">
<title>Node1&#45;&gt;Node6</title>
<path fill="none" stroke="midnightblue" d="M134.9,-50.62C119.74,-40.76 100.12,-27.99 87.3,-19.65"/>
<polygon fill="midnightblue" stroke="midnightblue" points="133.37,-53.8 143.66,-56.32 137.19,-47.94 133.37,-53.8"/>
</g>
<!-- Node7 -->
<g id="node7" class="node">
<title>Node7</title>
<g id="a_node7"><a xlink:href="classPlayerPlacementController.html" target="_top" xlink:title=" ">
<polygon fill="white" stroke="black" points="166.5,-0.5 166.5,-19.5 313.5,-19.5 313.5,-0.5 166.5,-0.5"/>
<text text-anchor="middle" x="240" y="-7.5" font-family="Helvetica,sans-Serif" font-size="10.00">PlayerPlacementController</text>
</a>
</g>
</g>
<!-- Node1&#45;&gt;Node7 -->
<g id="edge6" class="edge">
<title>Node1&#45;&gt;Node7</title>
<path fill="none" stroke="midnightblue" d="M179.1,-50.62C194.26,-40.76 213.88,-27.99 226.7,-19.65"/>
<polygon fill="midnightblue" stroke="midnightblue" points="176.81,-47.94 170.34,-56.32 180.63,-53.8 176.81,-47.94"/>
</g>
<!-- Node2 -->
<g id="node2" class="node">
<title>Node2</title>
<g id="a_node2"><a xlink:href="classGameController.html" target="_top" xlink:title=" ">
<polygon fill="white" stroke="black" points="110,-112.5 110,-131.5 204,-131.5 204,-112.5 110,-112.5"/>
<text text-anchor="middle" x="157" y="-119.5" font-family="Helvetica,sans-Serif" font-size="10.00">GameController</text>
</a>
</g>
</g>
<!-- Node2&#45;&gt;Node1 -->
<g id="edge1" class="edge">
<title>Node2&#45;&gt;Node1</title>
<path fill="none" stroke="midnightblue" d="M157,-101.8C157,-92.91 157,-82.78 157,-75.75"/>
<polygon fill="midnightblue" stroke="midnightblue" points="153.5,-102.08 157,-112.08 160.5,-102.08 153.5,-102.08"/>
</g>
<!-- Node3 -->
<g id="node3" class="node">
<title>Node3</title>
<g id="a_node3"><a target="_parent" xlink:href="https://docs.wxwidgets.org/3.2.2.1/classwx_evt_handler.html" xlink:title=" ">
<polygon fill="white" stroke="black" points="114.5,-168.5 114.5,-187.5 199.5,-187.5 199.5,-168.5 114.5,-168.5"/>
<text text-anchor="middle" x="157" y="-175.5" font-family="Helvetica,sans-Serif" font-size="10.00">wxEvtHandler</text>
</a>
</g>
</g>
<!-- Node3&#45;&gt;Node2 -->
<g id="edge2" class="edge">
<title>Node3&#45;&gt;Node2</title>
<path fill="none" stroke="midnightblue" d="M157,-157.8C157,-148.91 157,-138.78 157,-131.75"/>
<polygon fill="midnightblue" stroke="midnightblue" points="153.5,-158.08 157,-168.08 160.5,-158.08 153.5,-158.08"/>
</g>
<!-- Node4 -->
<g id="node4" class="node">
<title>Node4</title>
<g id="a_node4"><a target="_parent" xlink:href="https://docs.wxwidgets.org/3.2.2.1/classwx_object.html" xlink:title=" ">
<polygon fill="white" stroke="black" points="82,-224.5 82,-243.5 144,-243.5 144,-224.5 82,-224.5"/>
<text text-anchor="middle" x="113" y="-231.5" font-family="Helvetica,sans-Serif" font-size="10.00">wxObject</text>
</a>
</g>
</g>
<!-- Node4&#45;&gt;Node3 -->
<g id="edge3" class="edge">
<title>Node4&#45;&gt;Node3</title>
<path fill="none" stroke="midnightblue" d="M126.73,-216.14C134.4,-206.74 143.63,-195.4 149.87,-187.75"/>
<polygon fill="midnightblue" stroke="midnightblue" points="123.87,-214.12 120.27,-224.08 129.3,-218.54 123.87,-214.12"/>
</g>
<!-- Node5 -->
<g id="node5" class="node">
<title>Node5</title>
<g id="a_node5"><a target="_parent" xlink:href="https://docs.wxwidgets.org/3.2.2.1/classwx_trackable.html" xlink:title=" ">
<polygon fill="white" stroke="black" points="162.5,-224.5 162.5,-243.5 239.5,-243.5 239.5,-224.5 162.5,-224.5"/>
<text text-anchor="middle" x="201" y="-231.5" font-family="Helvetica,sans-Serif" font-size="10.00">wxTrackable</text>
</a>
</g>
</g>
<!-- Node5&#45;&gt;Node3 -->
<g id="edge4" class="edge">
<title>Node5&#45;&gt;Node3</title>
<path fill="none" stroke="midnightblue" d="M187.27,-216.14C179.6,-206.74 170.37,-195.4 164.13,-187.75"/>
<polygon fill="midnightblue" stroke="midnightblue" points="184.7,-218.54 193.73,-224.08 190.13,-214.12 184.7,-218.54"/>
</g>
</g>
</svg>
