<?xml version="1.0" encoding="UTF-8" standalone="no"?>
<!DOCTYPE svg PUBLIC "-//W3C//DTD SVG 1.1//EN"
 "http://www.w3.org/Graphics/SVG/1.1/DTD/svg11.dtd">
<!-- Generated by graphviz version 2.43.0 (0)
 -->
<!-- Title: Graphical Class Hierarchy Pages: 1 -->
<svg width="474pt" height="39pt"
 viewBox="0.00 0.00 474.00 39.00" xmlns="http://www.w3.org/2000/svg" xmlns:xlink="http://www.w3.org/1999/xlink">
<g id="graph0" class="graph" transform="scale(1 1) rotate(0) translate(4 35)">
<title>Graphical Class Hierarchy</title>
<polygon fill="white" stroke="transparent" points="-4,4 -4,-35 470,-35 470,4 -4,4"/>
<!-- Node0 -->
<g id="node1" class="node">
<title>Node0</title>
<g id="a_node1"><a target="_parent" xlink:href="https://docs.wxwidgets.org/3.2.2.1/classwx_persistent_object.html" xlink:title=" ">
<polygon fill="white" stroke="black" points="0,-6 0,-25 111,-25 111,-6 0,-6"/>
<text text-anchor="middle" x="55.5" y="-13" font-family="Helvetica,sans-Serif" font-size="10.00">wxPersistentObject</text>
</a>
</g>
</g>
<!-- Node1 -->
<g id="node2" class="node">
<title>Node1</title>
<g id="a_node2"><a target="_parent" xlink:href="https://docs.wxwidgets.org/3.2.2.1/classwx_persistent_window.html" xlink:title=" ">
<polygon fill="white" stroke="black" points="147,-0.5 147,-30.5 269,-30.5 269,-0.5 147,-0.5"/>
<text text-anchor="start" x="155" y="-18.5" font-family="Helvetica,sans-Serif" font-size="10.00">wxPersistentWindow</text>
<text text-anchor="middle" x="208" y="-7.5" font-family="Helvetica,sans-Serif" font-size="10.00">&lt; NewGameDialog &gt;</text>
</a>
</g>
</g>
<!-- Node0&#45;&gt;Node1 -->
<g id="edge1" class="edge">
<title>Node0&#45;&gt;Node1</title>
<path fill="none" stroke="midnightblue" d="M121.46,-15.5C129.93,-15.5 138.57,-15.5 146.94,-15.5"/>
<polygon fill="midnightblue" stroke="midnightblue" points="121.26,-12 111.26,-15.5 121.26,-19 121.26,-12"/>
</g>
<!-- Node2 -->
<g id="node3" class="node">
<title>Node2</title>
<g id="a_node3"><a xlink:href="classNewGameDialog_1_1Persistence.html" target="_top" xlink:title=" ">
<polygon fill="white" stroke="black" points="305,-6 305,-25 466,-25 466,-6 305,-6"/>
<text text-anchor="middle" x="385.5" y="-13" font-family="Helvetica,sans-Serif" font-size="10.00">NewGameDialog::Persistence</text>
</a>
</g>
</g>
<!-- Node1&#45;&gt;Node2 -->
<g id="edge2" class="edge">
<title>Node1&#45;&gt;Node2</title>
<path fill="none" stroke="midnightblue" d="M279.44,-15.5C287.77,-15.5 296.32,-15.5 304.78,-15.5"/>
<polygon fill="midnightblue" stroke="midnightblue" points="279.4,-12 269.4,-15.5 279.4,-19 279.4,-12"/>
</g>
</g>
</svg>
