<?xml version="1.0" encoding="UTF-8" standalone="no"?>
<!DOCTYPE svg PUBLIC "-//W3C//DTD SVG 1.1//EN"
 "http://www.w3.org/Graphics/SVG/1.1/DTD/svg11.dtd">
<!-- Generated by graphviz version 2.43.0 (0)
 -->
<!-- Title: Graphical Class Hierarchy Pages: 1 -->
<svg width="965pt" height="417pt"
 viewBox="0.00 0.00 965.00 417.00" xmlns="http://www.w3.org/2000/svg" xmlns:xlink="http://www.w3.org/1999/xlink">
<g id="graph0" class="graph" transform="scale(1 1) rotate(0) translate(4 413)">
<title>Graphical Class Hierarchy</title>
<polygon fill="white" stroke="transparent" points="-4,4 -4,-413 961,-413 961,4 -4,4"/>
<!-- Node0 -->
<g id="node1" class="node">
<title>Node0</title>
<g id="a_node1"><a target="_parent" xlink:href="https://docs.wxwidgets.org/3.2.2.1/classwx_event_filter.html" xlink:title=" ">
<polygon fill="white" stroke="black" points="114,-360.5 114,-379.5 197,-379.5 197,-360.5 114,-360.5"/>
<text text-anchor="middle" x="155.5" y="-367.5" font-family="Helvetica,sans-Serif" font-size="10.00">wxEventFilter</text>
</a>
</g>
</g>
<!-- Node1 -->
<g id="node2" class="node">
<title>Node1</title>
<g id="a_node2"><a target="_parent" xlink:href="https://docs.wxwidgets.org/3.2.2.1/classwx_app_console.html" xlink:title=" ">
<polygon fill="white" stroke="black" points="236.5,-360.5 236.5,-379.5 325.5,-379.5 325.5,-360.5 236.5,-360.5"/>
<text text-anchor="middle" x="281" y="-367.5" font-family="Helvetica,sans-Serif" font-size="10.00">wxAppConsole</text>
</a>
</g>
</g>
<!-- Node0&#45;&gt;Node1 -->
<g id="edge1" class="edge">
<title>Node0&#45;&gt;Node1</title>
<path fill="none" stroke="midnightblue" d="M207.48,-370C217.04,-370 226.97,-370 236.29,-370"/>
<polygon fill="midnightblue" stroke="midnightblue" points="207.28,-366.5 197.28,-370 207.28,-373.5 207.28,-366.5"/>
</g>
<!-- Node2 -->
<g id="node3" class="node">
<title>Node2</title>
<g id="a_node3"><a target="_parent" xlink:href="https://docs.wxwidgets.org/3.2.2.1/classwx_app.html" xlink:title=" ">
<polygon fill="white" stroke="black" points="409.5,-389.5 409.5,-408.5 459.5,-408.5 459.5,-389.5 409.5,-389.5"/>
<text text-anchor="middle" x="434.5" y="-396.5" font-family="Helvetica,sans-Serif" font-size="10.00">wxApp</text>
</a>
</g>
</g>
<!-- Node1&#45;&gt;Node2 -->
<g id="edge2" class="edge">
<title>Node1&#45;&gt;Node2</title>
<path fill="none" stroke="midnightblue" d="M335.92,-380.32C360.92,-385.11 389.39,-390.56 409.09,-394.33"/>
<polygon fill="midnightblue" stroke="midnightblue" points="336.3,-376.83 325.82,-378.39 334.98,-383.71 336.3,-376.83"/>
</g>
<!-- Node3 -->
<g id="node4" class="node">
<title>Node3</title>
<g id="a_node4"><a xlink:href="classPenguinsApp.html" target="_top" xlink:title=" ">
<polygon fill="white" stroke="black" points="575,-389.5 575,-408.5 655,-408.5 655,-389.5 575,-389.5"/>
<text text-anchor="middle" x="615" y="-396.5" font-family="Helvetica,sans-Serif" font-size="10.00">PenguinsApp</text>
</a>
</g>
</g>
<!-- Node2&#45;&gt;Node3 -->
<g id="edge3" class="edge">
<title>Node2&#45;&gt;Node3</title>
<path fill="none" stroke="midnightblue" d="M469.6,-399C499.67,-399 543.5,-399 574.97,-399"/>
<polygon fill="midnightblue" stroke="midnightblue" points="469.57,-395.5 459.57,-399 469.57,-402.5 469.57,-395.5"/>
</g>
<!-- Node28 -->
<g id="node5" class="node">
<title>Node28</title>
<g id="a_node5"><a target="_parent" xlink:href="https://docs.wxwidgets.org/3.2.2.1/classwx_object.html" xlink:title=" ">
<polygon fill="white" stroke="black" points="7.5,-313.5 7.5,-332.5 69.5,-332.5 69.5,-313.5 7.5,-313.5"/>
<text text-anchor="middle" x="38.5" y="-320.5" font-family="Helvetica,sans-Serif" font-size="10.00">wxObject</text>
</a>
</g>
</g>
<!-- Node29 -->
<g id="node6" class="node">
<title>Node29</title>
<g id="a_node6"><a target="_parent" xlink:href="https://docs.wxwidgets.org/3.2.2.1/classwx_evt_handler.html" xlink:title=" ">
<polygon fill="white" stroke="black" points="113,-294.5 113,-313.5 198,-313.5 198,-294.5 113,-294.5"/>
<text text-anchor="middle" x="155.5" y="-301.5" font-family="Helvetica,sans-Serif" font-size="10.00">wxEvtHandler</text>
</a>
</g>
</g>
<!-- Node28&#45;&gt;Node29 -->
<g id="edge4" class="edge">
<title>Node28&#45;&gt;Node29</title>
<path fill="none" stroke="midnightblue" d="M79.67,-316.36C90.4,-314.59 102.01,-312.67 112.81,-310.89"/>
<polygon fill="midnightblue" stroke="midnightblue" points="79.01,-312.92 69.71,-318.01 80.15,-319.83 79.01,-312.92"/>
</g>
<!-- Node29&#45;&gt;Node1 -->
<g id="edge14" class="edge">
<title>Node29&#45;&gt;Node1</title>
<path fill="none" stroke="midnightblue" d="M183.35,-318.35C207.18,-331.08 241.34,-349.34 262.02,-360.39"/>
<polygon fill="midnightblue" stroke="midnightblue" points="184.93,-315.22 174.46,-313.6 181.63,-321.4 184.93,-315.22"/>
</g>
<!-- Node30 -->
<g id="node7" class="node">
<title>Node30</title>
<g id="a_node7"><a xlink:href="classGameController.html" target="_top" xlink:title=" ">
<polygon fill="white" stroke="black" points="234,-294.5 234,-313.5 328,-313.5 328,-294.5 234,-294.5"/>
<text text-anchor="middle" x="281" y="-301.5" font-family="Helvetica,sans-Serif" font-size="10.00">GameController</text>
</a>
</g>
</g>
<!-- Node29&#45;&gt;Node30 -->
<g id="edge5" class="edge">
<title>Node29&#45;&gt;Node30</title>
<path fill="none" stroke="midnightblue" d="M208.48,-304C216.95,-304 225.67,-304 233.99,-304"/>
<polygon fill="midnightblue" stroke="midnightblue" points="208.31,-300.5 198.31,-304 208.31,-307.5 208.31,-300.5"/>
</g>
<!-- Node39 -->
<g id="node16" class="node">
<title>Node39</title>
<g id="a_node16"><a target="_parent" xlink:href="https://docs.wxwidgets.org/3.2.2.1/classwx_window.html" xlink:title=" ">
<polygon fill="white" stroke="black" points="246,-142.5 246,-161.5 316,-161.5 316,-142.5 246,-142.5"/>
<text text-anchor="middle" x="281" y="-149.5" font-family="Helvetica,sans-Serif" font-size="10.00">wxWindow</text>
</a>
</g>
</g>
<!-- Node29&#45;&gt;Node39 -->
<g id="edge15" class="edge">
<title>Node29&#45;&gt;Node39</title>
<path fill="none" stroke="midnightblue" d="M170.81,-286.39C197.05,-254.1 252.01,-186.45 272.28,-161.5"/>
<polygon fill="midnightblue" stroke="midnightblue" points="167.82,-284.52 164.23,-294.49 173.25,-288.94 167.82,-284.52"/>
</g>
<!-- Node31 -->
<g id="node8" class="node">
<title>Node31</title>
<g id="a_node8"><a xlink:href="classBotTurnController.html" target="_top" xlink:title=" ">
<polygon fill="white" stroke="black" points="384,-351.5 384,-370.5 485,-370.5 485,-351.5 384,-351.5"/>
<text text-anchor="middle" x="434.5" y="-358.5" font-family="Helvetica,sans-Serif" font-size="10.00">BotTurnController</text>
</a>
</g>
</g>
<!-- Node30&#45;&gt;Node31 -->
<g id="edge6" class="edge">
<title>Node30&#45;&gt;Node31</title>
<path fill="none" stroke="midnightblue" d="M309.33,-318.07C325.05,-325.8 345.33,-335.18 364,-342 373.63,-345.52 384.23,-348.74 394.18,-351.48"/>
<polygon fill="midnightblue" stroke="midnightblue" points="310.7,-314.84 300.19,-313.5 307.57,-321.1 310.7,-314.84"/>
</g>
<!-- Node34 -->
<g id="node11" class="node">
<title>Node34</title>
<g id="a_node11"><a xlink:href="classGameEndedController.html" target="_top" xlink:title=" ">
<polygon fill="white" stroke="black" points="372.5,-313.5 372.5,-332.5 496.5,-332.5 496.5,-313.5 372.5,-313.5"/>
<text text-anchor="middle" x="434.5" y="-320.5" font-family="Helvetica,sans-Serif" font-size="10.00">GameEndedController</text>
</a>
</g>
</g>
<!-- Node30&#45;&gt;Node34 -->
<g id="edge9" class="edge">
<title>Node30&#45;&gt;Node34</title>
<path fill="none" stroke="midnightblue" d="M338.3,-311.06C349.42,-312.46 361.15,-313.93 372.42,-315.34"/>
<polygon fill="midnightblue" stroke="midnightblue" points="338.64,-307.58 328.28,-309.8 337.76,-314.52 338.64,-307.58"/>
</g>
<!-- Node35 -->
<g id="node12" class="node">
<title>Node35</title>
<g id="a_node12"><a xlink:href="classLogEntryViewerController.html" target="_top" xlink:title=" ">
<polygon fill="white" stroke="black" points="364,-275.5 364,-294.5 505,-294.5 505,-275.5 364,-275.5"/>
<text text-anchor="middle" x="434.5" y="-282.5" font-family="Helvetica,sans-Serif" font-size="10.00">LogEntryViewerController</text>
</a>
</g>
</g>
<!-- Node30&#45;&gt;Node35 -->
<g id="edge10" class="edge">
<title>Node30&#45;&gt;Node35</title>
<path fill="none" stroke="midnightblue" d="M338.24,-296.95C346.57,-295.9 355.23,-294.82 363.8,-293.74"/>
<polygon fill="midnightblue" stroke="midnightblue" points="337.76,-293.48 328.28,-298.2 338.64,-300.42 337.76,-293.48"/>
</g>
<!-- Node36 -->
<g id="node13" class="node">
<title>Node36</title>
<g id="a_node13"><a xlink:href="classPlayerTurnController.html" target="_top" xlink:title=" ">
<polygon fill="white" stroke="black" points="376.5,-237.5 376.5,-256.5 492.5,-256.5 492.5,-237.5 376.5,-237.5"/>
<text text-anchor="middle" x="434.5" y="-244.5" font-family="Helvetica,sans-Serif" font-size="10.00">PlayerTurnController</text>
</a>
</g>
</g>
<!-- Node30&#45;&gt;Node36 -->
<g id="edge11" class="edge">
<title>Node30&#45;&gt;Node36</title>
<path fill="none" stroke="midnightblue" d="M309.33,-289.93C325.05,-282.2 345.33,-272.82 364,-266 373.63,-262.48 384.23,-259.26 394.18,-256.52"/>
<polygon fill="midnightblue" stroke="midnightblue" points="307.57,-286.9 300.19,-294.5 310.7,-293.16 307.57,-286.9"/>
</g>
<!-- Node32 -->
<g id="node9" class="node">
<title>Node32</title>
<g id="a_node9"><a xlink:href="classBotMovementController.html" target="_top" xlink:title=" ">
<polygon fill="white" stroke="black" points="548,-351.5 548,-370.5 682,-370.5 682,-351.5 548,-351.5"/>
<text text-anchor="middle" x="615" y="-358.5" font-family="Helvetica,sans-Serif" font-size="10.00">BotMovementController</text>
</a>
</g>
</g>
<!-- Node31&#45;&gt;Node32 -->
<g id="edge7" class="edge">
<title>Node31&#45;&gt;Node32</title>
<path fill="none" stroke="midnightblue" d="M495.47,-361C512.3,-361 530.69,-361 547.86,-361"/>
<polygon fill="midnightblue" stroke="midnightblue" points="495.22,-357.5 485.22,-361 495.22,-364.5 495.22,-357.5"/>
</g>
<!-- Node33 -->
<g id="node10" class="node">
<title>Node33</title>
<g id="a_node10"><a xlink:href="classBotPlacementController.html" target="_top" xlink:title=" ">
<polygon fill="white" stroke="black" points="548.5,-313.5 548.5,-332.5 681.5,-332.5 681.5,-313.5 548.5,-313.5"/>
<text text-anchor="middle" x="615" y="-320.5" font-family="Helvetica,sans-Serif" font-size="10.00">BotPlacementController</text>
</a>
</g>
</g>
<!-- Node31&#45;&gt;Node33 -->
<g id="edge8" class="edge">
<title>Node31&#45;&gt;Node33</title>
<path fill="none" stroke="midnightblue" d="M490.37,-349.32C515.68,-343.93 545.35,-337.61 569.28,-332.52"/>
<polygon fill="midnightblue" stroke="midnightblue" points="489.6,-345.91 480.54,-351.41 491.05,-352.75 489.6,-345.91"/>
</g>
<!-- Node37 -->
<g id="node14" class="node">
<title>Node37</title>
<g id="a_node14"><a xlink:href="classPlayerMovementController.html" target="_top" xlink:title=" ">
<polygon fill="white" stroke="black" points="541,-256.5 541,-275.5 689,-275.5 689,-256.5 541,-256.5"/>
<text text-anchor="middle" x="615" y="-263.5" font-family="Helvetica,sans-Serif" font-size="10.00">PlayerMovementController</text>
</a>
</g>
</g>
<!-- Node36&#45;&gt;Node37 -->
<g id="edge12" class="edge">
<title>Node36&#45;&gt;Node37</title>
<path fill="none" stroke="midnightblue" d="M503.18,-254.2C515.53,-255.52 528.47,-256.9 540.97,-258.23"/>
<polygon fill="midnightblue" stroke="midnightblue" points="503.28,-250.69 492.96,-253.12 502.53,-257.66 503.28,-250.69"/>
</g>
<!-- Node38 -->
<g id="node15" class="node">
<title>Node38</title>
<g id="a_node15"><a xlink:href="classPlayerPlacementController.html" target="_top" xlink:title=" ">
<polygon fill="white" stroke="black" points="541.5,-218.5 541.5,-237.5 688.5,-237.5 688.5,-218.5 541.5,-218.5"/>
<text text-anchor="middle" x="615" y="-225.5" font-family="Helvetica,sans-Serif" font-size="10.00">PlayerPlacementController</text>
</a>
</g>
</g>
<!-- Node36&#45;&gt;Node38 -->
<g id="edge13" class="edge">
<title>Node36&#45;&gt;Node38</title>
<path fill="none" stroke="midnightblue" d="M503.25,-239.79C515.68,-238.47 528.71,-237.08 541.29,-235.74"/>
<polygon fill="midnightblue" stroke="midnightblue" points="502.53,-236.34 492.96,-240.88 503.28,-243.31 502.53,-236.34"/>
</g>
<!-- Node40 -->
<g id="node17" class="node">
<title>Node40</title>
<g id="a_node17"><a xlink:href="classCanvasPanel.html" target="_top" xlink:title="Responsible for drawing the board and painting the UI overlays.">
<polygon fill="white" stroke="black" points="395,-199.5 395,-218.5 474,-218.5 474,-199.5 395,-199.5"/>
<text text-anchor="middle" x="434.5" y="-206.5" font-family="Helvetica,sans-Serif" font-size="10.00">CanvasPanel</text>
</a>
</g>
</g>
<!-- Node39&#45;&gt;Node40 -->
<g id="edge16" class="edge">
<title>Node39&#45;&gt;Node40</title>
<path fill="none" stroke="midnightblue" d="M309.33,-166.07C325.05,-173.8 345.33,-183.18 364,-190 373.87,-193.61 384.74,-196.89 394.9,-199.68"/>
<polygon fill="midnightblue" stroke="midnightblue" points="310.7,-162.84 300.19,-161.5 307.57,-169.1 310.7,-162.84"/>
</g>
<!-- Node41 -->
<g id="node18" class="node">
<title>Node41</title>
<g id="a_node18"><a xlink:href="classPlayerPenguinWindow.html" target="_top" xlink:title=" ">
<polygon fill="white" stroke="black" points="372,-161.5 372,-180.5 497,-180.5 497,-161.5 372,-161.5"/>
<text text-anchor="middle" x="434.5" y="-168.5" font-family="Helvetica,sans-Serif" font-size="10.00">PlayerPenguinWindow</text>
</a>
</g>
</g>
<!-- Node39&#45;&gt;Node41 -->
<g id="edge17" class="edge">
<title>Node39&#45;&gt;Node41</title>
<path fill="none" stroke="midnightblue" d="M326.39,-157.57C340.62,-159.35 356.64,-161.36 371.87,-163.27"/>
<polygon fill="midnightblue" stroke="midnightblue" points="326.74,-154.08 316.38,-156.31 325.86,-161.03 326.74,-154.08"/>
</g>
<!-- Node42 -->
<g id="node19" class="node">
<title>Node42</title>
<g id="a_node19"><a target="_parent" xlink:href="https://docs.wxwidgets.org/3.2.2.1/classwx_control.html" xlink:title=" ">
<polygon fill="white" stroke="black" points="401.5,-123.5 401.5,-142.5 467.5,-142.5 467.5,-123.5 401.5,-123.5"/>
<text text-anchor="middle" x="434.5" y="-130.5" font-family="Helvetica,sans-Serif" font-size="10.00">wxControl</text>
</a>
</g>
</g>
<!-- Node39&#45;&gt;Node42 -->
<g id="edge18" class="edge">
<title>Node39&#45;&gt;Node42</title>
<path fill="none" stroke="midnightblue" d="M326.32,-146.44C350.35,-143.43 379.5,-139.77 401.33,-137.03"/>
<polygon fill="midnightblue" stroke="midnightblue" points="325.86,-142.97 316.38,-147.69 326.74,-149.92 325.86,-142.97"/>
</g>
<!-- Node46 -->
<g id="node23" class="node">
<title>Node46</title>
<g id="a_node23"><a target="_parent" xlink:href="https://docs.wxwidgets.org/3.2.2.1/classwx_non_owned_window.html" xlink:title=" ">
<polygon fill="white" stroke="black" points="373,-85.5 373,-104.5 496,-104.5 496,-85.5 373,-85.5"/>
<text text-anchor="middle" x="434.5" y="-92.5" font-family="Helvetica,sans-Serif" font-size="10.00">wxNonOwnedWindow</text>
</a>
</g>
</g>
<!-- Node39&#45;&gt;Node46 -->
<g id="edge22" class="edge">
<title>Node39&#45;&gt;Node46</title>
<path fill="none" stroke="midnightblue" d="M309.33,-137.93C325.05,-130.2 345.33,-120.82 364,-114 373.63,-110.48 384.23,-107.26 394.18,-104.52"/>
<polygon fill="midnightblue" stroke="midnightblue" points="307.57,-134.9 300.19,-142.5 310.7,-141.16 307.57,-134.9"/>
</g>
<!-- Node53 -->
<g id="node30" class="node">
<title>Node53</title>
<g id="a_node30"><a target="_parent" xlink:href="https://docs.wxwidgets.org/3.2.2.1/classwx_panel.html" xlink:title=" ">
<polygon fill="white" stroke="black" points="406,-38.5 406,-57.5 463,-57.5 463,-38.5 406,-38.5"/>
<text text-anchor="middle" x="434.5" y="-45.5" font-family="Helvetica,sans-Serif" font-size="10.00">wxPanel</text>
</a>
</g>
</g>
<!-- Node39&#45;&gt;Node53 -->
<g id="edge29" class="edge">
<title>Node39&#45;&gt;Node53</title>
<path fill="none" stroke="midnightblue" d="M296.93,-134.92C312.35,-118.11 337.8,-92.62 364,-76 376.96,-67.78 392.74,-61.19 405.99,-56.47"/>
<polygon fill="midnightblue" stroke="midnightblue" points="294.29,-132.62 290.2,-142.4 299.49,-137.3 294.29,-132.62"/>
</g>
<!-- Node43 -->
<g id="node20" class="node">
<title>Node43</title>
<g id="a_node20"><a target="_parent" xlink:href="https://docs.wxwidgets.org/3.2.2.1/classwx_static_box.html" xlink:title=" ">
<polygon fill="white" stroke="black" points="576.5,-143.5 576.5,-162.5 653.5,-162.5 653.5,-143.5 576.5,-143.5"/>
<text text-anchor="middle" x="615" y="-150.5" font-family="Helvetica,sans-Serif" font-size="10.00">wxStaticBox</text>
</a>
</g>
</g>
<!-- Node42&#45;&gt;Node43 -->
<g id="edge19" class="edge">
<title>Node42&#45;&gt;Node43</title>
<path fill="none" stroke="midnightblue" d="M477.96,-137.76C507.88,-141.11 547.57,-145.56 576.35,-148.78"/>
<polygon fill="midnightblue" stroke="midnightblue" points="478.15,-134.26 467.83,-136.62 477.37,-141.21 478.15,-134.26"/>
</g>
<!-- Node44 -->
<g id="node21" class="node">
<title>Node44</title>
<g id="a_node21"><a xlink:href="classSimpleStaticBox.html" target="_top" xlink:title="A wxStaticBox with just the border and no label.">
<polygon fill="white" stroke="black" points="725,-162.5 725,-181.5 822,-181.5 822,-162.5 725,-162.5"/>
<text text-anchor="middle" x="773.5" y="-169.5" font-family="Helvetica,sans-Serif" font-size="10.00">SimpleStaticBox</text>
</a>
</g>
</g>
<!-- Node43&#45;&gt;Node44 -->
<g id="edge20" class="edge">
<title>Node43&#45;&gt;Node44</title>
<path fill="none" stroke="midnightblue" d="M663.99,-158.83C683.32,-161.17 705.57,-163.87 724.87,-166.22"/>
<polygon fill="midnightblue" stroke="midnightblue" points="664.23,-155.33 653.88,-157.6 663.39,-162.28 664.23,-155.33"/>
</g>
<!-- Node45 -->
<g id="node22" class="node">
<title>Node45</title>
<g id="a_node22"><a xlink:href="classPlayerInfoBox.html" target="_top" xlink:title=" ">
<polygon fill="white" stroke="black" points="865,-171.5 865,-190.5 950,-190.5 950,-171.5 865,-171.5"/>
<text text-anchor="middle" x="907.5" y="-178.5" font-family="Helvetica,sans-Serif" font-size="10.00">PlayerInfoBox</text>
</a>
</g>
</g>
<!-- Node44&#45;&gt;Node45 -->
<g id="edge21" class="edge">
<title>Node44&#45;&gt;Node45</title>
<path fill="none" stroke="midnightblue" d="M832.41,-175.95C843.24,-176.69 854.37,-177.45 864.6,-178.14"/>
<polygon fill="midnightblue" stroke="midnightblue" points="832.37,-172.44 822.16,-175.25 831.89,-179.42 832.37,-172.44"/>
</g>
<!-- Node47 -->
<g id="node24" class="node">
<title>Node47</title>
<g id="a_node24"><a target="_parent" xlink:href="https://docs.wxwidgets.org/3.2.2.1/classwx_top_level_window.html" xlink:title=" ">
<polygon fill="white" stroke="black" points="558.5,-85.5 558.5,-104.5 671.5,-104.5 671.5,-85.5 558.5,-85.5"/>
<text text-anchor="middle" x="615" y="-92.5" font-family="Helvetica,sans-Serif" font-size="10.00">wxTopLevelWindow</text>
</a>
</g>
</g>
<!-- Node46&#45;&gt;Node47 -->
<g id="edge23" class="edge">
<title>Node46&#45;&gt;Node47</title>
<path fill="none" stroke="midnightblue" d="M506.47,-95C523.76,-95 541.99,-95 558.44,-95"/>
<polygon fill="midnightblue" stroke="midnightblue" points="506.43,-91.5 496.43,-95 506.43,-98.5 506.43,-91.5"/>
</g>
<!-- Node48 -->
<g id="node25" class="node">
<title>Node48</title>
<g id="a_node25"><a target="_parent" xlink:href="https://docs.wxwidgets.org/3.2.2.1/classwx_dialog.html" xlink:title=" ">
<polygon fill="white" stroke="black" points="742.5,-114.5 742.5,-133.5 804.5,-133.5 804.5,-114.5 742.5,-114.5"/>
<text text-anchor="middle" x="773.5" y="-121.5" font-family="Helvetica,sans-Serif" font-size="10.00">wxDialog</text>
</a>
</g>
</g>
<!-- Node47&#45;&gt;Node48 -->
<g id="edge24" class="edge">
<title>Node47&#45;&gt;Node48</title>
<path fill="none" stroke="midnightblue" d="M677.73,-106.44C699.94,-110.55 724.01,-115.01 742.34,-118.41"/>
<polygon fill="midnightblue" stroke="midnightblue" points="678.15,-102.96 667.68,-104.58 676.87,-109.84 678.15,-102.96"/>
</g>
<!-- Node51 -->
<g id="node28" class="node">
<title>Node51</title>
<g id="a_node28"><a target="_parent" xlink:href="https://docs.wxwidgets.org/3.2.2.1/classwx_frame.html" xlink:title=" ">
<polygon fill="white" stroke="black" points="742.5,-76.5 742.5,-95.5 804.5,-95.5 804.5,-76.5 742.5,-76.5"/>
<text text-anchor="middle" x="773.5" y="-83.5" font-family="Helvetica,sans-Serif" font-size="10.00">wxFrame</text>
</a>
</g>
</g>
<!-- Node47&#45;&gt;Node51 -->
<g id="edge27" class="edge">
<title>Node47&#45;&gt;Node51</title>
<path fill="none" stroke="midnightblue" d="M681.78,-91.22C702.73,-90.01 724.91,-88.74 742.09,-87.75"/>
<polygon fill="midnightblue" stroke="midnightblue" points="681.4,-87.73 671.62,-91.8 681.8,-94.72 681.4,-87.73"/>
</g>
<!-- Node49 -->
<g id="node26" class="node">
<title>Node49</title>
<g id="a_node26"><a xlink:href="classGameEndDialog.html" target="_top" xlink:title=" ">
<polygon fill="white" stroke="black" points="860,-133.5 860,-152.5 955,-152.5 955,-133.5 860,-133.5"/>
<text text-anchor="middle" x="907.5" y="-140.5" font-family="Helvetica,sans-Serif" font-size="10.00">GameEndDialog</text>
</a>
</g>
</g>
<!-- Node48&#45;&gt;Node49 -->
<g id="edge25" class="edge">
<title>Node48&#45;&gt;Node49</title>
<path fill="none" stroke="midnightblue" d="M814.76,-129.79C828.97,-131.84 845.08,-134.16 859.79,-136.28"/>
<polygon fill="midnightblue" stroke="midnightblue" points="815.18,-126.32 804.78,-128.36 814.18,-133.25 815.18,-126.32"/>
</g>
<!-- Node50 -->
<g id="node27" class="node">
<title>Node50</title>
<g id="a_node27"><a xlink:href="classNewGameDialog.html" target="_top" xlink:title=" ">
<polygon fill="white" stroke="black" points="858,-95.5 858,-114.5 957,-114.5 957,-95.5 858,-95.5"/>
<text text-anchor="middle" x="907.5" y="-102.5" font-family="Helvetica,sans-Serif" font-size="10.00">NewGameDialog</text>
</a>
</g>
</g>
<!-- Node48&#45;&gt;Node50 -->
<g id="edge26" class="edge">
<title>Node48&#45;&gt;Node50</title>
<path fill="none" stroke="midnightblue" d="M814.82,-118.2C828.44,-116.24 843.8,-114.03 857.99,-111.98"/>
<polygon fill="midnightblue" stroke="midnightblue" points="814.18,-114.75 804.78,-119.64 815.18,-121.68 814.18,-114.75"/>
</g>
<!-- Node52 -->
<g id="node29" class="node">
<title>Node52</title>
<g id="a_node29"><a xlink:href="classGameFrame.html" target="_top" xlink:title=" ">
<polygon fill="white" stroke="black" points="869,-57.5 869,-76.5 946,-76.5 946,-57.5 869,-57.5"/>
<text text-anchor="middle" x="907.5" y="-64.5" font-family="Helvetica,sans-Serif" font-size="10.00">GameFrame</text>
</a>
</g>
</g>
<!-- Node51&#45;&gt;Node52 -->
<g id="edge28" class="edge">
<title>Node51&#45;&gt;Node52</title>
<path fill="none" stroke="midnightblue" d="M815.05,-80.16C832.17,-77.7 852,-74.85 868.8,-72.43"/>
<polygon fill="midnightblue" stroke="midnightblue" points="814.18,-76.75 804.78,-81.64 815.18,-83.68 814.18,-76.75"/>
</g>
<!-- Node54 -->
<g id="node31" class="node">
<title>Node54</title>
<g id="a_node31"><a xlink:href="classBaseGamePanel.html" target="_top" xlink:title=" ">
<polygon fill="white" stroke="black" points="567,-38.5 567,-57.5 663,-57.5 663,-38.5 567,-38.5"/>
<text text-anchor="middle" x="615" y="-45.5" font-family="Helvetica,sans-Serif" font-size="10.00">BaseGamePanel</text>
</a>
</g>
</g>
<!-- Node53&#45;&gt;Node54 -->
<g id="edge30" class="edge">
<title>Node53&#45;&gt;Node54</title>
<path fill="none" stroke="midnightblue" d="M473.7,-48C500.96,-48 537.78,-48 566.87,-48"/>
<polygon fill="midnightblue" stroke="midnightblue" points="473.39,-44.5 463.39,-48 473.39,-51.5 473.39,-44.5"/>
</g>
<!-- Node55 -->
<g id="node32" class="node">
<title>Node55</title>
<g id="a_node32"><a xlink:href="classGamePanel.html" target="_top" xlink:title=" ">
<polygon fill="white" stroke="black" points="737.5,-38.5 737.5,-57.5 809.5,-57.5 809.5,-38.5 737.5,-38.5"/>
<text text-anchor="middle" x="773.5" y="-45.5" font-family="Helvetica,sans-Serif" font-size="10.00">GamePanel</text>
</a>
</g>
</g>
<!-- Node54&#45;&gt;Node55 -->
<g id="edge31" class="edge">
<title>Node54&#45;&gt;Node55</title>
<path fill="none" stroke="midnightblue" d="M673.64,-48C694.95,-48 718.47,-48 737.21,-48"/>
<polygon fill="midnightblue" stroke="midnightblue" points="673.38,-44.5 663.38,-48 673.38,-51.5 673.38,-44.5"/>
</g>
<!-- Node56 -->
<g id="node33" class="node">
<title>Node56</title>
<g id="a_node33"><a xlink:href="classGameStartPanel.html" target="_top" xlink:title=" ">
<polygon fill="white" stroke="black" points="726,-0.5 726,-19.5 821,-19.5 821,-0.5 726,-0.5"/>
<text text-anchor="middle" x="773.5" y="-7.5" font-family="Helvetica,sans-Serif" font-size="10.00">GameStartPanel</text>
</a>
</g>
</g>
<!-- Node54&#45;&gt;Node56 -->
<g id="edge32" class="edge">
<title>Node54&#45;&gt;Node56</title>
<path fill="none" stroke="midnightblue" d="M665.29,-36.03C687.22,-30.71 712.68,-24.52 733.29,-19.52"/>
<polygon fill="midnightblue" stroke="midnightblue" points="664.38,-32.65 655.49,-38.41 666.04,-39.45 664.38,-32.65"/>
</g>
<!-- Node67 -->
<g id="node34" class="node">
<title>Node67</title>
<g id="a_node34"><a target="_parent" xlink:href="https://docs.wxwidgets.org/3.2.2.1/classwx_trackable.html" xlink:title=" ">
<polygon fill="white" stroke="black" points="0,-275.5 0,-294.5 77,-294.5 77,-275.5 0,-275.5"/>
<text text-anchor="middle" x="38.5" y="-282.5" font-family="Helvetica,sans-Serif" font-size="10.00">wxTrackable</text>
</a>
</g>
</g>
<!-- Node67&#45;&gt;Node29 -->
<g id="edge33" class="edge">
<title>Node67&#45;&gt;Node29</title>
<path fill="none" stroke="midnightblue" d="M87.29,-292.89C95.75,-294.29 104.5,-295.74 112.78,-297.11"/>
<polygon fill="midnightblue" stroke="midnightblue" points="87.59,-289.4 77.16,-291.22 86.45,-296.3 87.59,-289.4"/>
</g>
</g>
</svg>
